<mxfile host="65bd71144e">
    <diagram id="7gHIuh4uazKhOzLzU_yE" name="Page-1">
        <mxGraphModel dx="1835" dy="1667" grid="1" gridSize="10" guides="1" tooltips="1" connect="1" arrows="1" fold="1" page="1" pageScale="1" pageWidth="850" pageHeight="1100" math="0" shadow="0">
            <root>
                <mxCell id="0"/>
                <mxCell id="1" parent="0"/>
                <mxCell id="85" value="" style="group;movable=0;resizable=0;rotatable=0;deletable=0;editable=0;connectable=0;" vertex="1" connectable="0" parent="1">
                    <mxGeometry x="-790" y="-830" width="730" height="560" as="geometry"/>
                </mxCell>
                <mxCell id="83" value="" style="rounded=1;whiteSpace=wrap;html=1;fontSize=12;movable=1;resizable=1;rotatable=1;deletable=1;editable=1;connectable=1;" parent="85" vertex="1">
                    <mxGeometry width="730" height="560" as="geometry"/>
                </mxCell>
                <mxCell id="12" value="" style="rounded=0;whiteSpace=wrap;html=1;movable=0;resizable=0;rotatable=0;deletable=0;editable=0;connectable=0;" parent="85" vertex="1">
                    <mxGeometry x="355" y="120" width="230" height="200" as="geometry"/>
                </mxCell>
                <mxCell id="2" value="" style="rounded=0;whiteSpace=wrap;html=1;movable=0;resizable=0;rotatable=0;deletable=0;editable=0;connectable=0;" parent="85" vertex="1">
                    <mxGeometry x="45" y="120" width="230" height="250" as="geometry"/>
                </mxCell>
                <mxCell id="3" value="" style="rounded=0;whiteSpace=wrap;html=1;movable=0;resizable=0;rotatable=0;deletable=0;editable=0;connectable=0;" parent="85" vertex="1">
                    <mxGeometry x="55" y="180" width="80" height="160" as="geometry"/>
                </mxCell>
                <mxCell id="5" value="" style="rounded=0;whiteSpace=wrap;html=1;movable=0;resizable=0;rotatable=0;deletable=0;editable=0;connectable=0;" parent="85" vertex="1">
                    <mxGeometry x="175" y="190" width="90" height="130" as="geometry"/>
                </mxCell>
                <mxCell id="6" value="&lt;span style=&quot;&quot;&gt;Memory Heap&lt;/span&gt;" style="text;html=1;align=center;verticalAlign=middle;resizable=0;points=[];autosize=1;strokeColor=none;fillColor=none;movable=0;rotatable=0;deletable=0;editable=0;connectable=0;" parent="85" vertex="1">
                    <mxGeometry x="45" y="150" width="100" height="30" as="geometry"/>
                </mxCell>
                <mxCell id="7" value="Call Stacks" style="text;html=1;align=center;verticalAlign=middle;resizable=0;points=[];autosize=1;strokeColor=none;fillColor=none;movable=0;rotatable=0;deletable=0;editable=0;connectable=0;" parent="85" vertex="1">
                    <mxGeometry x="180" y="160" width="80" height="30" as="geometry"/>
                </mxCell>
                <mxCell id="8" value="Functioin" style="text;html=1;align=center;verticalAlign=middle;resizable=0;points=[];autosize=1;strokeColor=none;fillColor=none;movable=0;rotatable=0;deletable=0;editable=0;connectable=0;" parent="85" vertex="1">
                    <mxGeometry x="185" y="210" width="70" height="30" as="geometry"/>
                </mxCell>
                <mxCell id="9" value="Function" style="text;html=1;align=center;verticalAlign=middle;resizable=0;points=[];autosize=1;strokeColor=none;fillColor=none;movable=0;rotatable=0;deletable=0;editable=0;connectable=0;" parent="85" vertex="1">
                    <mxGeometry x="185" y="240" width="70" height="30" as="geometry"/>
                </mxCell>
                <mxCell id="10" value="Fucntion" style="text;html=1;align=center;verticalAlign=middle;resizable=0;points=[];autosize=1;strokeColor=none;fillColor=none;movable=0;rotatable=0;deletable=0;editable=0;connectable=0;" parent="85" vertex="1">
                    <mxGeometry x="185" y="270" width="70" height="30" as="geometry"/>
                </mxCell>
                <mxCell id="14" value="" style="edgeStyle=none;shape=link;html=1;entryX=1.004;entryY=0.624;entryDx=0;entryDy=0;entryPerimeter=0;exitX=-0.005;exitY=0.612;exitDx=0;exitDy=0;exitPerimeter=0;movable=0;resizable=0;rotatable=0;deletable=0;editable=0;connectable=0;" parent="85" source="5" target="5" edge="1">
                    <mxGeometry relative="1" as="geometry">
                        <mxPoint x="290.28999999999996" y="219.5" as="sourcePoint"/>
                        <mxPoint x="365.23" y="170.25" as="targetPoint"/>
                        <Array as="points">
                            <mxPoint x="235" y="270"/>
                        </Array>
                    </mxGeometry>
                </mxCell>
                <mxCell id="15" value="" style="edgeStyle=none;shape=link;html=1;entryX=1.004;entryY=0.624;entryDx=0;entryDy=0;entryPerimeter=0;exitX=-0.005;exitY=0.612;exitDx=0;exitDy=0;exitPerimeter=0;movable=0;resizable=0;rotatable=0;deletable=0;editable=0;connectable=0;" parent="85" edge="1">
                    <mxGeometry relative="1" as="geometry">
                        <mxPoint x="174.59999999999997" y="238.43999999999994" as="sourcePoint"/>
                        <mxPoint x="265.4099999999999" y="240" as="targetPoint"/>
                        <Array as="points">
                            <mxPoint x="235.05" y="238.88"/>
                        </Array>
                    </mxGeometry>
                </mxCell>
                <mxCell id="18" value="Javascript Engine" style="text;html=1;align=center;verticalAlign=middle;resizable=0;points=[];autosize=1;strokeColor=none;fillColor=none;movable=0;rotatable=0;deletable=0;editable=0;connectable=0;" parent="85" vertex="1">
                    <mxGeometry x="100" y="80" width="120" height="30" as="geometry"/>
                </mxCell>
                <mxCell id="20" value="Web Api / Node (Note : in case of node dom api is not available)" style="text;html=1;align=center;verticalAlign=middle;resizable=0;points=[];autosize=1;strokeColor=none;fillColor=none;movable=0;rotatable=0;deletable=0;editable=0;connectable=0;" parent="85" vertex="1">
                    <mxGeometry x="315" y="90" width="360" height="30" as="geometry"/>
                </mxCell>
                <mxCell id="21" value="Dom api" style="text;html=1;align=center;verticalAlign=middle;resizable=0;points=[];autosize=1;strokeColor=none;fillColor=none;movable=0;rotatable=0;deletable=0;editable=0;connectable=0;" parent="85" vertex="1">
                    <mxGeometry x="365" y="140" width="70" height="30" as="geometry"/>
                </mxCell>
                <mxCell id="22" value="setimeout()" style="text;html=1;align=center;verticalAlign=middle;resizable=0;points=[];autosize=1;strokeColor=none;fillColor=none;movable=0;rotatable=0;deletable=0;editable=0;connectable=0;" parent="85" vertex="1">
                    <mxGeometry x="360" y="170" width="80" height="30" as="geometry"/>
                </mxCell>
                <mxCell id="31" value="" style="edgeStyle=none;html=1;entryX=0.015;entryY=0.345;entryDx=0;entryDy=0;entryPerimeter=0;movable=0;resizable=0;rotatable=0;deletable=0;editable=0;connectable=0;" parent="85" source="8" target="22" edge="1">
                    <mxGeometry relative="1" as="geometry"/>
                </mxCell>
                <mxCell id="23" value="setaInterval()" style="text;html=1;align=center;verticalAlign=middle;resizable=0;points=[];autosize=1;strokeColor=none;fillColor=none;movable=0;rotatable=0;deletable=0;editable=0;connectable=0;" parent="85" vertex="1">
                    <mxGeometry x="355" y="200" width="90" height="30" as="geometry"/>
                </mxCell>
                <mxCell id="24" value="Call" style="text;html=1;align=center;verticalAlign=middle;resizable=0;points=[];autosize=1;strokeColor=none;fillColor=none;rotation=-15;movable=0;rotatable=0;deletable=0;editable=0;connectable=0;" parent="85" vertex="1">
                    <mxGeometry x="291" y="170" width="40" height="30" as="geometry"/>
                </mxCell>
                <mxCell id="33" value="Register Callback" style="whiteSpace=wrap;html=1;movable=0;resizable=0;rotatable=0;deletable=0;editable=0;connectable=0;" parent="85" vertex="1">
                    <mxGeometry x="475" y="220" width="100" height="40" as="geometry"/>
                </mxCell>
                <mxCell id="39" value="" style="whiteSpace=wrap;html=1;movable=0;resizable=0;rotatable=0;deletable=0;editable=0;connectable=0;" parent="85" vertex="1">
                    <mxGeometry x="345" y="400" width="150" height="40" as="geometry"/>
                </mxCell>
                <mxCell id="40" value="Task Queue" style="text;html=1;align=center;verticalAlign=middle;resizable=0;points=[];autosize=1;strokeColor=none;fillColor=none;movable=0;rotatable=0;deletable=0;editable=0;connectable=0;" parent="85" vertex="1">
                    <mxGeometry x="385" y="450" width="90" height="30" as="geometry"/>
                </mxCell>
                <mxCell id="44" value="" style="edgeStyle=none;html=1;movable=0;resizable=0;rotatable=0;deletable=0;editable=0;connectable=0;" parent="85" source="42" target="5" edge="1">
                    <mxGeometry relative="1" as="geometry"/>
                </mxCell>
                <mxCell id="42" value="" style="shape=waypoint;sketch=0;size=6;pointerEvents=1;points=[];fillColor=default;resizable=0;rotatable=0;perimeter=centerPerimeter;snapToPoint=1;movable=0;deletable=0;editable=0;connectable=0;" parent="85" vertex="1">
                    <mxGeometry x="210" y="410" width="20" height="20" as="geometry"/>
                </mxCell>
                <mxCell id="43" value="" style="edgeStyle=none;html=1;movable=0;resizable=0;rotatable=0;deletable=0;editable=0;connectable=0;" parent="85" source="39" target="42" edge="1">
                    <mxGeometry relative="1" as="geometry"/>
                </mxCell>
                <mxCell id="49" value="" style="edgeStyle=none;html=1;exitX=1.015;exitY=0.511;exitDx=0;exitDy=0;exitPerimeter=0;movable=0;resizable=0;rotatable=0;deletable=0;editable=0;connectable=0;" parent="85" source="22" edge="1">
                    <mxGeometry relative="1" as="geometry">
                        <mxPoint x="535" y="230" as="sourcePoint"/>
                        <mxPoint x="525" y="185" as="targetPoint"/>
                    </mxGeometry>
                </mxCell>
                <mxCell id="50" value="" style="edgeStyle=none;html=1;movable=0;resizable=0;rotatable=0;deletable=0;editable=0;connectable=0;" parent="85" edge="1">
                    <mxGeometry relative="1" as="geometry">
                        <mxPoint x="524.5" y="225" as="sourcePoint"/>
                        <mxPoint x="525" y="220" as="targetPoint"/>
                        <Array as="points">
                            <mxPoint x="525" y="180"/>
                        </Array>
                    </mxGeometry>
                </mxCell>
                <mxCell id="58" value="" style="edgeStyle=none;html=1;movable=0;resizable=0;rotatable=0;deletable=0;editable=0;connectable=0;" parent="85" source="56" target="39" edge="1">
                    <mxGeometry relative="1" as="geometry"/>
                </mxCell>
                <mxCell id="56" value="" style="shape=waypoint;sketch=0;size=6;pointerEvents=1;points=[];fillColor=default;resizable=0;rotatable=0;perimeter=centerPerimeter;snapToPoint=1;movable=0;deletable=0;editable=0;connectable=0;" parent="85" vertex="1">
                    <mxGeometry x="515" y="410" width="20" height="20" as="geometry"/>
                </mxCell>
                <mxCell id="57" value="" style="edgeStyle=none;html=1;movable=0;resizable=0;rotatable=0;deletable=0;editable=0;connectable=0;" parent="85" source="33" target="56" edge="1">
                    <mxGeometry relative="1" as="geometry"/>
                </mxCell>
                <mxCell id="59" value="CB" style="text;html=1;align=center;verticalAlign=middle;resizable=0;points=[];autosize=1;strokeColor=none;fillColor=none;movable=0;rotatable=0;deletable=0;editable=0;connectable=0;" parent="85" vertex="1">
                    <mxGeometry x="420" y="405" width="40" height="30" as="geometry"/>
                </mxCell>
                <mxCell id="60" value="CB" style="text;html=1;align=center;verticalAlign=middle;resizable=0;points=[];autosize=1;strokeColor=none;fillColor=none;movable=0;rotatable=0;deletable=0;editable=0;connectable=0;" parent="85" vertex="1">
                    <mxGeometry x="380" y="405" width="40" height="30" as="geometry"/>
                </mxCell>
                <mxCell id="61" value="CB" style="text;html=1;align=center;verticalAlign=middle;resizable=0;points=[];autosize=1;strokeColor=none;fillColor=none;movable=0;rotatable=0;deletable=0;editable=0;connectable=0;" parent="85" vertex="1">
                    <mxGeometry x="345" y="405" width="40" height="30" as="geometry"/>
                </mxCell>
                <mxCell id="62" value="(Note : in case of node dom api &lt;br&gt;is not available)" style="text;html=1;align=center;verticalAlign=middle;resizable=0;points=[];autosize=1;strokeColor=none;fillColor=none;fontSize=9;movable=0;rotatable=0;deletable=0;editable=0;connectable=0;" parent="85" vertex="1">
                    <mxGeometry x="435" y="135" width="150" height="40" as="geometry"/>
                </mxCell>
                <mxCell id="73" value="" style="edgeStyle=none;html=1;fontSize=12;startArrow=none;movable=0;resizable=0;rotatable=0;deletable=0;editable=0;connectable=0;" parent="85" source="74" edge="1">
                    <mxGeometry relative="1" as="geometry">
                        <mxPoint x="455" y="240" as="targetPoint"/>
                    </mxGeometry>
                </mxCell>
                <mxCell id="63" value="Fetch()" style="text;html=1;align=center;verticalAlign=middle;resizable=0;points=[];autosize=1;strokeColor=none;fillColor=none;fontSize=12;movable=0;rotatable=0;deletable=0;editable=0;connectable=0;" parent="85" vertex="1">
                    <mxGeometry x="370" y="225" width="60" height="30" as="geometry"/>
                </mxCell>
                <mxCell id="65" value="Event Loop" style="text;html=1;align=center;verticalAlign=middle;resizable=0;points=[];autosize=1;strokeColor=none;fillColor=none;fontSize=12;movable=0;rotatable=0;deletable=0;editable=0;connectable=0;" parent="85" vertex="1">
                    <mxGeometry x="295" y="470" width="80" height="30" as="geometry"/>
                </mxCell>
                <mxCell id="66" value="Add to call stacks" style="text;html=1;align=center;verticalAlign=middle;resizable=0;points=[];autosize=1;strokeColor=none;fillColor=none;fontSize=12;movable=0;rotatable=0;deletable=0;editable=0;connectable=0;" parent="85" vertex="1">
                    <mxGeometry x="220" y="420" width="120" height="30" as="geometry"/>
                </mxCell>
                <mxCell id="68" value="" style="whiteSpace=wrap;html=1;movable=0;resizable=0;rotatable=0;deletable=0;editable=0;connectable=0;" parent="85" vertex="1">
                    <mxGeometry x="345" y="330" width="150" height="40" as="geometry"/>
                </mxCell>
                <mxCell id="69" value="CB" style="text;html=1;align=center;verticalAlign=middle;resizable=0;points=[];autosize=1;strokeColor=none;fillColor=none;movable=0;rotatable=0;deletable=0;editable=0;connectable=0;" parent="85" vertex="1">
                    <mxGeometry x="345" y="335" width="40" height="30" as="geometry"/>
                </mxCell>
                <mxCell id="70" value="CB" style="text;html=1;align=center;verticalAlign=middle;resizable=0;points=[];autosize=1;strokeColor=none;fillColor=none;movable=0;rotatable=0;deletable=0;editable=0;connectable=0;" parent="85" vertex="1">
                    <mxGeometry x="380" y="335" width="40" height="30" as="geometry"/>
                </mxCell>
                <mxCell id="71" value="CB" style="text;html=1;align=center;verticalAlign=middle;resizable=0;points=[];autosize=1;strokeColor=none;fillColor=none;movable=0;rotatable=0;deletable=0;editable=0;connectable=0;" parent="85" vertex="1">
                    <mxGeometry x="420" y="335" width="40" height="30" as="geometry"/>
                </mxCell>
                <mxCell id="75" value="" style="edgeStyle=none;html=1;fontSize=12;endArrow=none;movable=0;resizable=0;rotatable=0;deletable=0;editable=0;connectable=0;" parent="85" source="63" target="74" edge="1">
                    <mxGeometry relative="1" as="geometry">
                        <mxPoint x="430" y="240" as="sourcePoint"/>
                        <mxPoint x="455" y="240" as="targetPoint"/>
                    </mxGeometry>
                </mxCell>
                <mxCell id="76" value="" style="edgeStyle=none;html=1;fontSize=12;entryX=0.883;entryY=-0.072;entryDx=0;entryDy=0;entryPerimeter=0;movable=0;resizable=0;rotatable=0;deletable=0;editable=0;connectable=0;" parent="85" source="74" target="71" edge="1">
                    <mxGeometry relative="1" as="geometry">
                        <mxPoint x="455" y="320" as="targetPoint"/>
                    </mxGeometry>
                </mxCell>
                <mxCell id="74" value="" style="shape=waypoint;sketch=0;size=6;pointerEvents=1;points=[];fillColor=none;resizable=0;rotatable=0;perimeter=centerPerimeter;snapToPoint=1;fontSize=12;movable=0;deletable=0;editable=0;connectable=0;" parent="85" vertex="1">
                    <mxGeometry x="445" y="230" width="20" height="20" as="geometry"/>
                </mxCell>
                <mxCell id="77" value="High priority Queue" style="text;html=1;align=center;verticalAlign=middle;resizable=0;points=[];autosize=1;strokeColor=none;fillColor=none;fontSize=12;movable=0;rotatable=0;deletable=0;editable=0;connectable=0;" parent="85" vertex="1">
                    <mxGeometry x="355" y="365" width="130" height="30" as="geometry"/>
                </mxCell>
                <mxCell id="82" style="edgeStyle=none;html=1;fontSize=12;entryX=1;entryY=1.333;entryDx=0;entryDy=0;entryPerimeter=0;movable=0;resizable=0;rotatable=0;deletable=0;editable=0;connectable=0;" parent="85" source="80" target="10" edge="1">
                    <mxGeometry relative="1" as="geometry">
                        <mxPoint x="255" y="330" as="targetPoint"/>
                    </mxGeometry>
                </mxCell>
                <mxCell id="80" value="" style="shape=waypoint;sketch=0;size=6;pointerEvents=1;points=[];fillColor=none;resizable=0;rotatable=0;perimeter=centerPerimeter;snapToPoint=1;fontSize=12;movable=0;deletable=0;editable=0;connectable=0;" parent="85" vertex="1">
                    <mxGeometry x="245" y="340" width="20" height="20" as="geometry"/>
                </mxCell>
                <mxCell id="78" value="" style="edgeStyle=none;html=1;fontSize=12;entryX=0.267;entryY=0.642;entryDx=0;entryDy=0;entryPerimeter=0;movable=0;resizable=0;rotatable=0;deletable=0;editable=0;connectable=0;" parent="85" source="69" target="80" edge="1">
                    <mxGeometry relative="1" as="geometry"/>
                </mxCell>
                <mxCell id="84" value="Fig : Working of aync Js" style="text;html=1;align=center;verticalAlign=middle;resizable=0;points=[];autosize=1;strokeColor=none;fillColor=none;fontSize=12;" parent="85" vertex="1">
                    <mxGeometry x="270" y="520" width="150" height="30" as="geometry"/>
                </mxCell>
            </root>
        </mxGraphModel>
    </diagram>
</mxfile>